<?xml version="1.0" encoding="UTF-8"?>
<svg width="40px" height="60px" viewBox="0 0 40 60" version="1.1" xmlns="http://www.w3.org/2000/svg" xmlns:xlink="http://www.w3.org/1999/xlink">
    <!-- Generator: Sketch 43.2 (39069) - http://www.bohemiancoding.com/sketch -->
    <title>hand</title>
    <desc>Created with Sketch.</desc>
    <defs></defs>
    <g id="Symbols" stroke="none" stroke-width="1" fill="none" fill-rule="evenodd" stroke-linecap="round" stroke-linejoin="round">
        <g id="hand" stroke="#000000" stroke-width="3">
            <path d="M31.269,22.5 L31.269,18.9352 C31.269,18.9352 31.3306,15.5 34.241,15.5 C37.1513,15.5 37.269,19 37.269,19 L37.269,38.9126 C37.269,38.9126 37.5078,41.6074 35.2597,44.1934 C33.0117,46.7793 31.58,47.8115 31.58,47.8115 L31.58,54.59 L19.5307,54.6306 L19.5307,46.8486 L2.6464,30.1201 C2.6464,30.1201 0.3113,27.7004 2.3064,25.7052 C4.3016,23.71 6.8047,26.0516 6.8047,26.0516 L13.269,32.2088 L13.269,4.8613 C13.3469,4.2911 13.4269,3.7052 13.6636,3.1807 C14.1472,2.1089 15.0114,1.4964 16.241,1.5 C17.4898,1.5036 18.3492,2.1299 18.8464,3.2124 C19.0917,3.7466 19.1815,4.3434 19.269,4.9248 L19.269,20.5226" fill="#FFB55D"></path>
            <polygon id="sleeve" fill="#FFFFFF" points="15.5 58 35.5 58 35.5 53 15.5 53"></polygon>
            <path d="M19.269,22.5 L19.269,18.9352 C19.269,18.9352 19.3306,15.5 22.241,15.5 C25.1513,15.5 25.269,19 25.269,19 L25.269,22.5" id="middle_finger" fill="#FFB55D"></path>
            <path d="M25.269,22.5 L25.269,18.9352 C25.269,18.9352 25.3306,15.5 28.241,15.5 C31.1513,15.5 31.269,19 31.269,19 L31.269,22.5" id="ring_finger" fill="#FFB55D"></path>
        </g>
    </g>
</svg>